<svg xmlns="http://www.w3.org/2000/svg" xmlns:xlink="http://www.w3.org/1999/xlink" width="1261" height="1261" viewBox="0 0 1261 1261">
  <defs>
    <linearGradient id="linear-gradient" x1="0.5" y1="0.006" x2="0.5" y2="0.425" gradientUnits="objectBoundingBox">
      <stop offset="0" stop-color="#125887"/>
      <stop offset="1"/>
    </linearGradient>
  </defs>
  <g id="astronauta2" transform="translate(0 0.169)">
    <g id="BACKGROUND">
      <rect id="XMLID_2700_" width="1261" height="1261" transform="translate(0 -0.169)" fill="url(#linear-gradient)"/>
      <g id="Grupo_17" data-name="Grupo 17" transform="translate(67.801 53.179)">
        <circle id="XMLID_2892_" cx="5.548" cy="5.548" r="5.548" transform="translate(147.297 61.556)" fill="#fff"/>
        <circle id="XMLID_2890_" cx="3.026" cy="3.026" r="3.026" transform="translate(160.158 195.456)" fill="#fff"/>
        <path id="XMLID_3_" d="M134.452,91.043a3.026,3.026,0,1,1-3.026-3.026A2.782,2.782,0,0,1,134.452,91.043Z" transform="translate(127.581 80.71)" fill="#fff"/>
        <circle id="XMLID_2889_" cx="3.53" cy="3.53" r="3.53" transform="translate(67.108 213.36)" fill="#fff"/>
        <path id="XMLID_2888_" d="M75.939,133.669a2.27,2.27,0,1,1-2.27-2.269A2.116,2.116,0,0,1,75.939,133.669Z" transform="translate(40.846 146.767)" fill="#fff"/>
        <circle id="XMLID_2887_" cx="2.017" cy="2.017" r="2.017" transform="translate(77.951 280.941)" fill="#fff"/>
        <path id="XMLID_2886_" d="M74.022,102.561a1.261,1.261,0,1,1-1.261-1.261A1.351,1.351,0,0,1,74.022,102.561Z" transform="translate(40.998 100.965)" fill="#fff"/>
        <path id="XMLID_2885_" d="M83.039,150.469a2.27,2.27,0,1,1-2.27-2.27A2.26,2.26,0,0,1,83.039,150.469Z" transform="translate(51.65 172.331)" fill="#fff"/>
        <circle id="XMLID_2883_" cx="2.017" cy="2.017" r="2.017" transform="translate(22.223 386.598)" fill="#fff"/>
        <path id="XMLID_2882_" d="M38.522,153.161a1.261,1.261,0,1,1-1.261-1.261A1.351,1.351,0,0,1,38.522,153.161Z" transform="translate(-13.021 177.961)" fill="#fff"/>
        <path id="XMLID_2879_" d="M65.552,169.326a3.026,3.026,0,1,1-3.026-3.026A2.913,2.913,0,0,1,65.552,169.326Z" transform="translate(22.738 199.873)" fill="#fff"/>
        <path id="XMLID_2878_" d="M45.952,127.826a3.026,3.026,0,1,1-3.026-3.026A3.066,3.066,0,0,1,45.952,127.826Z" transform="translate(-7.086 136.724)" fill="#fff"/>
        <circle id="XMLID_2877_" cx="3.026" cy="3.026" r="3.026" transform="translate(44.413 406.267)" fill="#fff"/>
        <path id="XMLID_2876_" d="M59.048,182.474a2.774,2.774,0,1,1-2.774-2.774A2.8,2.8,0,0,1,59.048,182.474Z" transform="translate(13.608 220.263)" fill="#fff"/>
        <path id="XMLID_2874_" d="M55.248,190.874a2.774,2.774,0,1,1-2.774-2.774A2.8,2.8,0,0,1,55.248,190.874Z" transform="translate(7.826 233.045)" fill="#fff"/>
        <path id="XMLID_2872_" d="M41.622,187.461a1.261,1.261,0,1,1-1.261-1.261A1.191,1.191,0,0,1,41.622,187.461Z" transform="translate(-8.304 230.154)" fill="#fff"/>
        <path id="XMLID_2867_" d="M348.51,31.829a3.21,3.21,0,1,1-4.539,0A3,3,0,0,1,348.51,31.829Z" transform="translate(454.168 -6.333)" fill="#fff"/>
        <path id="XMLID_2864_" d="M346.616,78.842a1.961,1.961,0,1,1-2.774,0A1.979,1.979,0,0,1,346.616,78.842Z" transform="translate(454.548 65.929)" fill="#fff"/>
        <path id="XMLID_2862_" d="M333.293,46.928a1.248,1.248,0,1,1-1.765,0C332.285,46.424,333.041,46.424,333.293,46.928Z" transform="translate(436.098 17.654)" fill="#fff"/>
        <path id="XMLID_2861_" d="M372.935,75.756a2.318,2.318,0,1,1-3.278,0A2.15,2.15,0,0,1,372.935,75.756Z" transform="translate(493.541 60.945)" fill="#fff"/>
        <path id="XMLID_2819_" d="M424.729,130.665a2.033,2.033,0,1,1,1.765,2.27A1.769,1.769,0,0,1,424.729,130.665Z" transform="translate(578.42 142.963)" fill="#fff"/>
        <path id="XMLID_2817_" d="M413.8,122.741a2.425,2.425,0,1,1,2.017,2.774A2.733,2.733,0,0,1,413.8,122.741Z" transform="translate(561.863 130.462)" fill="#fff"/>
        <path id="XMLID_2814_" d="M452.924,92.665a2.033,2.033,0,1,1,1.765,2.27A2.009,2.009,0,0,1,452.924,92.665Z" transform="translate(621.337 85.14)" fill="#fff"/>
        <path id="XMLID_11_" d="M473.829,52.265a2.033,2.033,0,1,1,4.035.5,2.422,2.422,0,0,1-2.27,1.765A1.964,1.964,0,0,1,473.829,52.265Z" transform="translate(653.134 23.664)" fill="#fff"/>
        <path id="XMLID_2813_" d="M449.839,114.809c0-.757.756-1.009,1.261-1.009.756,0,1.009.757,1.009,1.261,0,.757-.756,1.009-1.261,1.009C450.092,116.069,449.587,115.313,449.839,114.809Z" transform="translate(616.604 119.986)" fill="#fff"/>
        <path id="XMLID_2812_" d="M435.62,106.793a2.675,2.675,0,1,1,2.269,3.026A2.643,2.643,0,0,1,435.62,106.793Z" transform="translate(595.016 105.811)" fill="#fff"/>
        <path id="XMLID_2811_" d="M356.623,96.589a3.068,3.068,0,1,1,2.522,3.53C357.38,100.12,356.371,98.354,356.623,96.589Z" transform="translate(474.801 89.789)" fill="#fff"/>
        <path id="XMLID_2810_" d="M440.623,141.089a3.068,3.068,0,1,1,2.522,3.53A3.086,3.086,0,0,1,440.623,141.089Z" transform="translate(602.621 157.503)" fill="#fff"/>
        <path id="XMLID_2802_" d="M460.609,105.58a3.078,3.078,0,1,1-4.287-.757A3.155,3.155,0,0,1,460.609,105.58Z" transform="translate(624.495 105.51)" fill="#fff"/>
        <path id="XMLID_2800_" d="M462.348,143.27a2.345,2.345,0,1,1-3.278-.5A2.391,2.391,0,0,1,462.348,143.27Z" transform="translate(629.312 163.392)" fill="#fff"/>
        <path id="XMLID_2798_" d="M443.117,118.352a1.261,1.261,0,1,1-1.765-.252A1.553,1.553,0,0,1,443.117,118.352Z" transform="translate(603.152 126.277)" fill="#fff"/>
        <path id="XMLID_2796_" d="M471.656,188.334a5.981,5.981,0,1,1-8.321-1.513A6.045,6.045,0,0,1,471.656,188.334Z" transform="translate(633.369 229.533)" fill="#fff"/>
        <path id="XMLID_2795_" d="M457.178,198.863a1.994,1.994,0,1,1-2.774-.5A2.233,2.233,0,0,1,457.178,198.863Z" transform="translate(622.378 248.256)" fill="#fff"/>
        <path id="XMLID_2794_" d="M443.017,180.364a1.261,1.261,0,1,1-1.765-.252A1.08,1.08,0,0,1,443.017,180.364Z" transform="translate(603 220.355)" fill="#fff"/>
        <path id="XMLID_2793_" d="M461,177.176a2.728,2.728,0,1,1-3.782-.757C458.222,175.663,459.987,176.168,461,177.176Z" transform="translate(626.125 214.718)" fill="#fff"/>
        <path id="XMLID_2788_" d="M478.1,202.213a2.728,2.728,0,1,1-3.782-.757A2.867,2.867,0,0,1,478.1,202.213Z" transform="translate(652.145 252.722)" fill="#fff"/>
        <path id="XMLID_2782_" d="M183.445,78.419a3.566,3.566,0,1,1-3.026,4.035A3.488,3.488,0,0,1,183.445,78.419Z" transform="translate(206.688 66.1)" fill="#fff"/>
        <path id="XMLID_2781_" d="M162.641,59.323a2.425,2.425,0,1,1-2.017,2.774A2.363,2.363,0,0,1,162.641,59.323Z" transform="translate(176.555 37.032)" fill="#fff"/>
        <path id="XMLID_2780_" d="M157.165,99.829a1.964,1.964,0,0,1,2.27,1.765c.252,1.261-.5,2.017-1.765,2.27A1.964,1.964,0,0,1,155.4,102.1,2.037,2.037,0,0,1,157.165,99.829Z" transform="translate(168.666 98.653)" fill="#fff"/>
        <path id="XMLID_2779_" d="M131.909,63.9c.757,0,1.261.252,1.261,1.009s-.252,1.261-1.009,1.261-1.261-.252-1.261-1.009C130.9,64.656,131.4,63.9,131.909,63.9Z" transform="translate(131.385 44.055)" fill="#fff"/>
        <path id="XMLID_2778_" d="M178.446,49.923a2.425,2.425,0,1,1-2.017,2.774A2.316,2.316,0,0,1,178.446,49.923Z" transform="translate(200.592 22.728)" fill="#fff"/>
        <path id="XMLID_2776_" d="M209.665,89.229A2.033,2.033,0,1,1,207.9,91.5,2.037,2.037,0,0,1,209.665,89.229Z" transform="translate(248.553 82.524)" fill="#fff"/>
        <circle id="XMLID_2762_" cx="5.548" cy="5.548" r="5.548" transform="translate(72.172 123.694) rotate(-52.361)" fill="#fff"/>
        <path id="XMLID_2759_" d="M101.045,58.562a2.283,2.283,0,1,1,2.017-2.522A2.4,2.4,0,0,1,101.045,58.562Z" transform="translate(82.06 28.967)" fill="#fff"/>
        <path id="XMLID_2758_" d="M98,44.764A1.964,1.964,0,0,1,95.729,43c-.252-1.261.5-2.017,1.765-2.27a2.033,2.033,0,0,1,.5,4.035Z" transform="translate(77.793 8.723)" fill="#fff"/>
        <path id="XMLID_2753_" d="M75.661,23.769c-.757,0-1.261-.252-1.261-1.009s.252-1.261,1.009-1.261,1.261.252,1.261,1.009A1.154,1.154,0,0,1,75.661,23.769Z" transform="translate(45.411 -20.464)" fill="#fff"/>
        <path id="XMLID_2749_" d="M103.85,28.124a3.175,3.175,0,1,1,2.774-3.53A3.138,3.138,0,0,1,103.85,28.124Z" transform="translate(84.803 -20.027)" fill="#fff"/>
        <path id="XMLID_2748_" d="M47.55,40.124a3.175,3.175,0,1,1,2.774-3.53A3.138,3.138,0,0,1,47.55,40.124Z" transform="translate(-0.867 -1.767)" fill="#fff"/>
        <path id="XMLID_2747_" d="M50.949,47.819a2.675,2.675,0,1,1,2.27-3.026A2.489,2.489,0,0,1,50.949,47.819Z" transform="translate(5.064 11.468)" fill="#fff"/>
        <path id="XMLID_2744_" d="M41.961,31.269c-.757,0-1.261-.252-1.261-1.009S40.952,29,41.709,29s1.261.252,1.261,1.009C43.222,30.765,42.717,31.269,41.961,31.269Z" transform="translate(-5.869 -9.051)" fill="#fff"/>
        <path id="XMLID_2740_" d="M299.454,43.48a3.566,3.566,0,1,1,3.026-4.035A3.332,3.332,0,0,1,299.454,43.48Z" transform="translate(381.679 2.19)" fill="#fff"/>
        <path id="XMLID_2739_" d="M275.845,61.962a2.283,2.283,0,1,1,2.017-2.522A2.4,2.4,0,0,1,275.845,61.962Z" transform="translate(348.046 34.14)" fill="#fff"/>
        <path id="XMLID_2737_" d="M305.161,55.969c-.756,0-1.261-.252-1.261-1.009s.252-1.261,1.009-1.261,1.261.252,1.261,1.009A1.154,1.154,0,0,1,305.161,55.969Z" transform="translate(394.633 28.534)" fill="#fff"/>
        <path id="XMLID_2734_" d="M228.5,31.564a2.033,2.033,0,1,1,1.765-2.269A1.964,1.964,0,0,1,228.5,31.564Z" transform="translate(276.37 -11.363)" fill="#fff"/>
        <path id="XMLID_2733_" d="M250.461,27.169c-.757,0-1.261-.252-1.261-1.009s.252-1.261,1.009-1.261,1.261.252,1.261,1.009A1.154,1.154,0,0,1,250.461,27.169Z" transform="translate(311.398 -15.29)" fill="#fff"/>
        <path id="XMLID_2732_" d="M246.949,45.019a2.675,2.675,0,1,1,2.269-3.026A2.364,2.364,0,0,1,246.949,45.019Z" transform="translate(303.31 7.207)" fill="#fff"/>
        <path id="XMLID_2731_" d="M240.05,56.324a3.175,3.175,0,1,1,2.774-3.53C242.824,54.558,241.815,56.324,240.05,56.324Z" transform="translate(292.053 22.884)" fill="#fff"/>
        <path id="XMLID_1_" d="M116.25,136.524a3.175,3.175,0,1,1,2.774-3.53A3.28,3.28,0,0,1,116.25,136.524Z" transform="translate(103.671 144.922)" fill="#fff"/>
        <path id="XMLID_2728_" d="M225.749,51.219a2.675,2.675,0,1,1,2.269-3.026A2.489,2.489,0,0,1,225.749,51.219Z" transform="translate(271.05 16.642)" fill="#fff"/>
        <path id="XMLID_2727_" d="M216.949,48.619a2.675,2.675,0,1,1,2.27-3.026A2.606,2.606,0,0,1,216.949,48.619Z" transform="translate(257.66 12.685)" fill="#fff"/>
        <path id="XMLID_2720_" d="M440.652,35.426a3.026,3.026,0,1,1-3.026-3.026A3.254,3.254,0,0,1,440.652,35.426Z" transform="translate(593.514 -3.878)" fill="#fff"/>
        <path id="XMLID_4_" d="M484.552,24.143a3.026,3.026,0,1,1-3.026-3.026A2.782,2.782,0,0,1,484.552,24.143Z" transform="translate(660.315 -21.089)" fill="#fff"/>
        <circle id="XMLID_2716_" cx="2.017" cy="2.017" r="2.017" transform="translate(945.908 114.259)" fill="#fff"/>
        <path id="XMLID_2715_" d="M418.222,36.461a1.261,1.261,0,1,1-1.261-1.261A1.191,1.191,0,0,1,418.222,36.461Z" transform="translate(564.754 0.383)" fill="#fff"/>
        <path id="XMLID_2714_" d="M427.239,84.369a2.269,2.269,0,1,1-2.27-2.27A2.116,2.116,0,0,1,427.239,84.369Z" transform="translate(575.406 71.749)" fill="#fff"/>
        <path id="XMLID_9_" d="M458.639,56.669a2.27,2.27,0,1,1-2.27-2.27A2.26,2.26,0,0,1,458.639,56.669Z" transform="translate(623.186 29.599)" fill="#fff"/>
        <g id="Grupo_16" data-name="Grupo 16" transform="translate(0 7.544)" opacity="0.3">
          <path id="XMLID_2884_" d="M59.2,174.9a5.8,5.8,0,1,1-5.8-5.8A5.706,5.706,0,0,1,59.2,174.9Z" transform="translate(4.631 196.589)" fill="#fff"/>
          <path id="XMLID_2880_" d="M55.548,160.574a2.774,2.774,0,1,1-2.774-2.774A2.646,2.646,0,0,1,55.548,160.574Z" transform="translate(8.283 179.395)" fill="#fff"/>
          <circle id="XMLID_2873_" cx="2.017" cy="2.017" r="2.017" transform="translate(33.318 428.479)" fill="#fff"/>
          <path id="XMLID_2866_" d="M327.714,62.429a3.566,3.566,0,1,1-5.043,0A3.577,3.577,0,0,1,327.714,62.429Z" transform="translate(421.756 32.686)" fill="#fff"/>
          <path id="XMLID_2865_" d="M356.135,68.442a2.355,2.355,0,0,1,0,3.278,2.318,2.318,0,1,1-3.278-3.278A2.645,2.645,0,0,1,356.135,68.442Z" transform="translate(467.977 42.559)" fill="#fff"/>
          <path id="XMLID_2826_" d="M431.443,123.486a5.493,5.493,0,1,1,4.539,6.3A5.641,5.641,0,0,1,431.443,123.486Z" transform="translate(588.602 120.155)" fill="#fff"/>
          <path id="XMLID_2803_" d="M456.356,164.057a5.423,5.423,0,1,1-7.565-1.261A5.092,5.092,0,0,1,456.356,164.057Z" transform="translate(611.6 185.241)" fill="#fff"/>
          <path id="XMLID_2801_" d="M435.365,132.688a3.606,3.606,0,1,1-5.043-.757A3.566,3.566,0,0,1,435.365,132.688Z" transform="translate(584.932 138.944)" fill="#fff"/>
          <path id="XMLID_13_" d="M471.965,68.888a3.606,3.606,0,1,1-5.043-.757A3.566,3.566,0,0,1,471.965,68.888Z" transform="translate(640.625 41.862)" fill="#fff"/>
          <path id="XMLID_2797_" d="M477.848,152.97a2.345,2.345,0,1,1-3.278-.5A2.391,2.391,0,0,1,477.848,152.97Z" transform="translate(652.898 170.608)" fill="#fff"/>
          <path id="XMLID_2789_" d="M476.3,193.28a2.728,2.728,0,1,1-3.782-.757A2.57,2.57,0,0,1,476.3,193.28Z" transform="translate(649.406 231.416)" fill="#fff"/>
          <path id="XMLID_2783_" d="M128.274,44.019a3.175,3.175,0,1,1-2.774,3.53A3.782,3.782,0,0,1,128.274,44.019Z" transform="translate(123.168 6.21)" fill="#fff"/>
          <path id="XMLID_14_" d="M29.693,61.619a3.175,3.175,0,1,1-2.774,3.53A3.011,3.011,0,0,1,29.693,61.619Z" transform="translate(-26.887 32.991)" fill="#fff"/>
          <path id="XMLID_2756_" d="M85.245,67.762a2.283,2.283,0,1,1,2.017-2.522A2.134,2.134,0,0,1,85.245,67.762Z" transform="translate(58.017 35.422)" fill="#fff"/>
          <path id="XMLID_2754_" d="M53.7,28.164a2.033,2.033,0,1,1,1.765-2.269A1.964,1.964,0,0,1,53.7,28.164Z" transform="translate(10.384 -24.081)" fill="#fff"/>
          <path id="XMLID_2751_" d="M72.149,41.619a2.675,2.675,0,1,1,2.27-3.026A2.364,2.364,0,0,1,72.149,41.619Z" transform="translate(37.323 -5.511)" fill="#fff"/>
          <path id="XMLID_2745_" d="M34.8,34.964a2.033,2.033,0,0,1-.5-4.035c1.261-.252,2.017.5,2.27,1.765A2.037,2.037,0,0,1,34.8,34.964Z" transform="translate(-18.376 -13.734)" fill="#fff"/>
          <path id="XMLID_2735_" d="M236.8,50.442a5.617,5.617,0,0,1-6.556-5.043,5.849,5.849,0,1,1,6.556,5.043Z" transform="translate(282.444 -1.726)" fill="#fff"/>
          <path id="XMLID_2730_" d="M278.65,31.524a3.175,3.175,0,1,1,2.774-3.53A3.138,3.138,0,0,1,278.65,31.524Z" transform="translate(350.789 -22.397)" fill="#fff"/>
          <path id="XMLID_2718_" d="M404.761,43.13a3.53,3.53,0,1,1-3.53-3.53A3.447,3.447,0,0,1,404.761,43.13Z" transform="translate(537.365 -0.466)" fill="#fff"/>
          <path id="XMLID_2717_" d="M420.039,67.469a2.269,2.269,0,1,1-2.27-2.27A2.26,2.26,0,0,1,420.039,67.469Z" transform="translate(564.45 38.489)" fill="#fff"/>
          <path id="XMLID_2713_" d="M403.4,108.809a5.8,5.8,0,1,1-5.8-5.8A5.56,5.56,0,0,1,403.4,108.809Z" transform="translate(528.387 95.998)" fill="#fff"/>
          <path id="XMLID_2711_" d="M382.622,86.961a1.261,1.261,0,1,1-1.261-1.261C382.117,85.952,382.622,86.456,382.622,86.961Z" transform="translate(510.583 69.683)" fill="#fff"/>
        </g>
        <path id="XMLID_2710_" d="M399.748,94.474a2.774,2.774,0,1,1-2.774-2.774A2.8,2.8,0,0,1,399.748,94.474Z" transform="translate(532.039 86.357)" fill="#fff"/>
        <path id="XMLID_2709_" d="M410.752,156.626a3.066,3.066,0,0,1-3.026,3.026,3.254,3.254,0,0,1-3.026-3.026,3.026,3.026,0,0,1,6.052,0Z" transform="translate(548.016 180.548)" fill="#fff"/>
        <path id="XMLID_2708_" d="M390.052,61.743a3.026,3.026,0,1,1-3.026-3.026A2.782,2.782,0,0,1,390.052,61.743Z" transform="translate(516.518 36.125)" fill="#fff"/>
        <path id="XMLID_2706_" d="M378.048,139.174a2.774,2.774,0,1,1-2.774-2.774A2.981,2.981,0,0,1,378.048,139.174Z" transform="translate(499.019 154.375)" fill="#fff"/>
      </g>
      <g id="Grupo_19" data-name="Grupo 19" transform="translate(56.154 543.23)">
        <circle id="XMLID_112_" cx="5.548" cy="5.548" r="5.548" transform="translate(998.153 600.848)" fill="#fff"/>
        <circle id="XMLID_111_" cx="3.026" cy="3.026" r="3.026" transform="translate(990.588 471.991)" fill="#fff"/>
        <circle id="XMLID_110_" cx="3.026" cy="3.026" r="3.026" transform="translate(894.765 498.72)" fill="#fff"/>
        <circle id="XMLID_109_" cx="3.53" cy="3.53" r="3.53" transform="translate(1082.376 453.078)" fill="#fff"/>
        <path id="XMLID_108_" d="M434.7,372.769a2.269,2.269,0,1,1,2.27,2.27A2.26,2.26,0,0,1,434.7,372.769Z" transform="translate(605.313 20.545)" fill="#fff"/>
        <circle id="XMLID_107_" cx="2.017" cy="2.017" r="2.017" transform="translate(1074.559 388.524)" fill="#fff"/>
        <path id="XMLID_106_" d="M435.3,402.561a1.261,1.261,0,1,1,1.261,1.261A1.351,1.351,0,0,1,435.3,402.561Z" transform="translate(606.226 67.413)" fill="#fff"/>
        <path id="XMLID_105_" d="M427.5,355.869a2.269,2.269,0,1,1,2.27,2.269A2.26,2.26,0,0,1,427.5,355.869Z" transform="translate(594.357 -5.171)" fill="#fff"/>
        <path id="XMLID_104_" d="M470.6,329.717a2.017,2.017,0,1,1,2.017,2.017C471.356,331.482,470.6,330.726,470.6,329.717Z" transform="translate(659.94 -44.582)" fill="#fff"/>
        <path id="XMLID_115_" d="M469.8,282.517a2.017,2.017,0,1,1,2.017,2.017A1.989,1.989,0,0,1,469.8,282.517Z" transform="translate(658.723 -116.404)" fill="#fff"/>
        <path id="XMLID_116_" d="M470.6,260.917a2.017,2.017,0,1,1,2.017,2.017A1.856,1.856,0,0,1,470.6,260.917Z" transform="translate(659.94 -149.272)" fill="#fff"/>
        <path id="XMLID_103_" d="M470.9,351.961a1.261,1.261,0,1,1,1.261,1.261A1.191,1.191,0,0,1,470.9,351.961Z" transform="translate(660.397 -9.583)" fill="#fff"/>
        <path id="XMLID_102_" d="M445.9,337.926a3.026,3.026,0,1,1,3.026,3.026C447.413,341.2,445.9,339.691,445.9,337.926Z" transform="translate(622.355 -33.626)" fill="#fff"/>
        <path id="XMLID_101_" d="M465.6,379.426a3.026,3.026,0,1,1,3.026,3.026A2.783,2.783,0,0,1,465.6,379.426Z" transform="translate(652.332 29.523)" fill="#fff"/>
        <path id="XMLID_100_" d="M460.9,322.026a3.026,3.026,0,1,1,3.026,3.026A3.066,3.066,0,0,1,460.9,322.026Z" transform="translate(645.18 -57.82)" fill="#fff"/>
        <path id="XMLID_99_" d="M452.2,324.474a2.774,2.774,0,1,1,2.774,2.774A2.646,2.646,0,0,1,452.2,324.474Z" transform="translate(631.942 -53.712)" fill="#fff"/>
        <path id="XMLID_113_" d="M443.7,254.074a2.774,2.774,0,1,1,2.774,2.774A2.8,2.8,0,0,1,443.7,254.074Z" transform="translate(619.008 -160.837)" fill="#fff"/>
        <path id="XMLID_98_" d="M455.9,316.074a2.774,2.774,0,1,1,2.774,2.774A2.8,2.8,0,0,1,455.9,316.074Z" transform="translate(637.572 -66.494)" fill="#fff"/>
        <path id="XMLID_114_" d="M484.2,249.074a2.774,2.774,0,1,1,2.774,2.774A2.8,2.8,0,0,1,484.2,249.074Z" transform="translate(680.635 -168.445)" fill="#fff"/>
        <path id="XMLID_117_" d="M443.7,226.874a2.774,2.774,0,1,1,2.774,2.774A2.8,2.8,0,0,1,443.7,226.874Z" transform="translate(619.008 -202.226)" fill="#fff"/>
        <path id="XMLID_97_" d="M467.8,317.661a1.261,1.261,0,1,1,1.261,1.261A1.191,1.191,0,0,1,467.8,317.661Z" transform="translate(655.68 -61.777)" fill="#fff"/>
        <path id="XMLID_96_" d="M163.171,475.81a3.21,3.21,0,1,1,4.539,0A3.2,3.2,0,0,1,163.171,475.81Z" transform="translate(190.698 172.445)" fill="#fff"/>
        <path id="XMLID_95_" d="M163.642,427.116a1.961,1.961,0,1,1,2.774,0A1.784,1.784,0,0,1,163.642,427.116Z" transform="translate(191.991 101.612)" fill="#fff"/>
        <path id="XMLID_94_" d="M176.028,458.193a1.248,1.248,0,1,1,1.765,0A1.219,1.219,0,0,1,176.028,458.193Z" transform="translate(211.126 150.724)" fill="#fff"/>
        <path id="XMLID_93_" d="M137.757,430.835a2.318,2.318,0,1,1,3.278,0A2.645,2.645,0,0,1,137.757,430.835Z" transform="translate(152.314 106.215)" fill="#fff"/>
        <path id="XMLID_92_" d="M85.535,375.369a2.033,2.033,0,1,1-1.765-2.269A1.964,1.964,0,0,1,85.535,375.369Z" transform="translate(67.862 24.502)" fill="#fff"/>
        <path id="XMLID_91_" d="M96.915,383.8a2.425,2.425,0,1,1-2.017-2.774A2.5,2.5,0,0,1,96.915,383.8Z" transform="translate(83.968 36.499)" fill="#fff"/>
        <path id="XMLID_90_" d="M57.435,413.369a2.422,2.422,0,0,1-2.27,1.765,2.033,2.033,0,1,1,.5-4.035C56.678,411.1,57.435,412.361,57.435,413.369Z" transform="translate(25.103 82.325)" fill="#fff"/>
        <path id="XMLID_89_" d="M36.535,453.769a2.422,2.422,0,0,1-2.27,1.765,2.033,2.033,0,1,1,.5-4.035A2.422,2.422,0,0,1,36.535,453.769Z" transform="translate(-6.7 143.8)" fill="#fff"/>
        <path id="XMLID_88_" d="M59.469,390.161c0,.756-.757,1.009-1.261,1.009-.757,0-1.009-.756-1.009-1.261,0-.756.757-1.009,1.261-1.009S59.469,389.656,59.469,390.161Z" transform="translate(30.885 48.544)" fill="#fff"/>
        <path id="XMLID_87_" d="M75.419,400.049a2.675,2.675,0,1,1-2.27-3.026A2.49,2.49,0,0,1,75.419,400.049Z" transform="translate(50.491 60.846)" fill="#fff"/>
        <path id="XMLID_86_" d="M155.02,410.8a3.068,3.068,0,1,1-2.522-3.53A3.141,3.141,0,0,1,155.02,410.8Z" transform="translate(170.354 76.323)" fill="#fff"/>
        <path id="XMLID_85_" d="M71.02,366.4a3.068,3.068,0,1,1-2.522-3.53C70.011,362.867,71.272,364.633,71.02,366.4Z" transform="translate(42.534 8.761)" fill="#fff"/>
        <path id="XMLID_84_" d="M50.965,401.752a3.078,3.078,0,1,1,4.287.756A3.2,3.2,0,0,1,50.965,401.752Z" transform="translate(20.477 60.656)" fill="#fff"/>
        <path id="XMLID_83_" d="M48.365,363.144a2.345,2.345,0,1,1,3.278.5A2.391,2.391,0,0,1,48.365,363.144Z" transform="translate(16.773 3.694)" fill="#fff"/>
        <path id="XMLID_82_" d="M66.1,386.665a1.261,1.261,0,1,1,2.017-1.513,1.261,1.261,0,1,1-2.017,1.513Z" transform="translate(44.176 42.205)" fill="#fff"/>
        <path id="XMLID_81_" d="M43.321,322.543a5.981,5.981,0,1,1,8.321,1.513A6.294,6.294,0,0,1,43.321,322.543Z" transform="translate(8.2 -66.658)" fill="#fff"/>
        <path id="XMLID_118_" d="M56.521,258.243a5.981,5.981,0,1,1,8.321,1.513A6.045,6.045,0,0,1,56.521,258.243Z" transform="translate(28.286 -164.501)" fill="#fff"/>
        <path id="XMLID_80_" d="M53,307.074a1.994,1.994,0,1,1,2.774.5A2.362,2.362,0,0,1,53,307.074Z" transform="translate(23.99 -80.693)" fill="#fff"/>
        <path id="XMLID_121_" d="M22.6,246.439a2.015,2.015,0,0,1,.5-2.774,1.821,1.821,0,0,1,2.774.5,2.015,2.015,0,0,1-.5,2.774A1.97,1.97,0,0,1,22.6,246.439Z" transform="translate(-22.269 -173.123)" fill="#fff"/>
        <path id="XMLID_119_" d="M33.2,271.674a1.994,1.994,0,1,1,2.774.5A1.821,1.821,0,0,1,33.2,271.674Z" transform="translate(-6.139 -134.56)" fill="#fff"/>
        <path id="XMLID_122_" d="M60.2,218.639a2.015,2.015,0,0,1,.5-2.774,1.821,1.821,0,0,1,2.774.5,2.015,2.015,0,0,1-.5,2.774A1.821,1.821,0,0,1,60.2,218.639Z" transform="translate(34.946 -215.426)" fill="#fff"/>
        <path id="XMLID_79_" d="M66.3,324.931a1.553,1.553,0,0,1,.252-1.765,1.246,1.246,0,0,1,1.765.252,1.553,1.553,0,0,1-.252,1.765A1.217,1.217,0,0,1,66.3,324.931Z" transform="translate(44.48 -51.899)" fill="#fff"/>
        <path id="XMLID_78_" d="M50.157,329.639a2.728,2.728,0,1,1,3.782.756A2.777,2.777,0,0,1,50.157,329.639Z" transform="translate(19.52 -48.034)" fill="#fff"/>
        <path id="XMLID_77_" d="M33.057,304.639a2.728,2.728,0,1,1,3.782.756A2.777,2.777,0,0,1,33.057,304.639Z" transform="translate(-6.5 -86.076)" fill="#fff"/>
        <path id="XMLID_76_" d="M328.654,429.48a3.566,3.566,0,1,1,3.026-4.035A3.488,3.488,0,0,1,328.654,429.48Z" transform="translate(437.758 99.5)" fill="#fff"/>
        <path id="XMLID_2_" d="M370.154,402.18a3.566,3.566,0,1,1,3.026-4.035A3.488,3.488,0,0,1,370.154,402.18Z" transform="translate(500.907 57.959)" fill="#fff"/>
        <path id="XMLID_75_" d="M348.1,447.315a2.425,2.425,0,1,1,2.017-2.774A2.316,2.316,0,0,1,348.1,447.315Z" transform="translate(469.252 130.082)" fill="#fff"/>
        <path id="XMLID_73_" d="M377.261,441.069c-.756,0-1.261-.252-1.261-1.009s.252-1.261,1.009-1.261,1.261.252,1.261,1.009C378.522,440.565,378.017,441.069,377.261,441.069Z" transform="translate(515.991 124.475)" fill="#fff"/>
        <path id="XMLID_72_" d="M332.4,456.615a2.425,2.425,0,1,1,2.017-2.774A2.5,2.5,0,0,1,332.4,456.615Z" transform="translate(445.362 144.233)" fill="#fff"/>
        <path id="XMLID_24_" d="M279.5,430.015a2.425,2.425,0,1,1,2.017-2.774A2.5,2.5,0,0,1,279.5,430.015Z" transform="translate(364.866 103.757)" fill="#fff"/>
        <path id="XMLID_70_" d="M451.8,431.742a5.458,5.458,0,1,1-4.791,6.052A5.735,5.735,0,0,1,451.8,431.742Z" transform="translate(624.016 113.629)" fill="#fff"/>
        <path id="XMLID_69_" d="M409.646,447.923a2.283,2.283,0,1,1-2.017,2.522A2.01,2.01,0,0,1,409.646,447.923Z" transform="translate(564.047 138.298)" fill="#fff"/>
        <path id="XMLID_68_" d="M412.265,461.329A2.033,2.033,0,1,1,410.5,463.6,2.422,2.422,0,0,1,412.265,461.329Z" transform="translate(568.488 158.683)" fill="#fff"/>
        <path id="XMLID_67_" d="M433.509,481.2c.756,0,1.261.252,1.261,1.009s-.252,1.261-1.009,1.261-1.261-.252-1.261-1.009C432.5,481.956,433,481.2,433.509,481.2Z" transform="translate(601.965 188.993)" fill="#fff"/>
        <path id="XMLID_66_" d="M407.774,479.319A3.175,3.175,0,1,1,405,482.85,3.328,3.328,0,0,1,407.774,479.319Z" transform="translate(560.119 186.083)" fill="#fff"/>
        <path id="XMLID_65_" d="M464.193,467.319a3.175,3.175,0,1,1-2.774,3.53A3.138,3.138,0,0,1,464.193,467.319Z" transform="translate(645.922 167.823)" fill="#fff"/>
        <path id="XMLID_64_" d="M460.093,459.023a2.675,2.675,0,1,1-2.27,3.026A2.606,2.606,0,0,1,460.093,459.023Z" transform="translate(640.44 155.189)" fill="#fff"/>
        <path id="XMLID_63_" d="M467.209,473.7c.756,0,1.261.252,1.261,1.009s-.252,1.261-1.009,1.261-1.261-.252-1.261-1.009C466.2,474.456,466.452,473.7,467.209,473.7Z" transform="translate(653.245 177.581)" fill="#fff"/>
        <path id="XMLID_62_" d="M212.645,464.419a3.566,3.566,0,1,1-3.026,4.035A3.488,3.488,0,0,1,212.645,464.419Z" transform="translate(262.767 163.41)" fill="#fff"/>
        <path id="XMLID_61_" d="M234.717,444.523a2.283,2.283,0,1,1-2.017,2.522A2.291,2.291,0,0,1,234.717,444.523Z" transform="translate(297.937 133.125)" fill="#fff"/>
        <path id="XMLID_60_" d="M204.148,449c.757,0,1.261.252,1.261,1.009s-.252,1.261-1.009,1.261-1.261-.252-1.261-1.009C202.887,449.5,203.392,449,204.148,449Z" transform="translate(252.856 139.996)" fill="#fff"/>
        <path id="XMLID_59_" d="M281.765,474.529A2.033,2.033,0,1,1,280,476.8,2.422,2.422,0,0,1,281.765,474.529Z" transform="translate(369.911 178.769)" fill="#fff"/>
        <path id="XMLID_58_" d="M258.709,477.8c.756,0,1.261.252,1.261,1.009s-.252,1.261-1.009,1.261-1.261-.252-1.261-1.009A1.154,1.154,0,0,1,258.709,477.8Z" transform="translate(335.978 183.82)" fill="#fff"/>
        <path id="XMLID_57_" d="M264.093,461.823a2.675,2.675,0,1,1-2.269,3.026A2.489,2.489,0,0,1,264.093,461.823Z" transform="translate(342.194 159.45)" fill="#fff"/>
        <path id="XMLID_56_" d="M271.693,451.119a3.175,3.175,0,1,1-2.774,3.53A3.138,3.138,0,0,1,271.693,451.119Z" transform="translate(353.002 143.172)" fill="#fff"/>
        <circle id="XMLID_55_" cx="3.026" cy="3.026" r="3.026" transform="translate(933.484 397.568) rotate(-77.285)" fill="#fff"/>
        <path id="XMLID_54_" d="M285.293,455.623a2.675,2.675,0,1,1-2.269,3.026A2.489,2.489,0,0,1,285.293,455.623Z" transform="translate(374.453 150.016)" fill="#fff"/>
        <path id="XMLID_53_" d="M294.093,458.223a2.675,2.675,0,1,1-2.269,3.026A2.606,2.606,0,0,1,294.093,458.223Z" transform="translate(387.844 153.972)" fill="#fff"/>
        <circle id="XMLID_52_" cx="3.026" cy="3.026" r="3.026" transform="translate(122.632 638.925)" fill="#fff"/>
        <circle id="XMLID_51_" cx="3.026" cy="3.026" r="3.026" transform="translate(11.931 667.672)" fill="#fff"/>
        <circle id="XMLID_50_" cx="2.017" cy="2.017" r="2.017" transform="translate(206.603 555.206)" fill="#fff"/>
        <path id="XMLID_49_" d="M91.1,468.661a1.261,1.261,0,1,1,1.261,1.261A1.191,1.191,0,0,1,91.1,468.661Z" transform="translate(82.469 167.995)" fill="#fff"/>
        <path id="XMLID_48_" d="M83.3,422.07a2.269,2.269,0,1,1,2.269,2.269A2.26,2.26,0,0,1,83.3,422.07Z" transform="translate(70.601 95.563)" fill="#fff"/>
        <circle id="XMLID_47_" cx="2.269" cy="2.269" r="2.269" transform="translate(74.972 584.961)" fill="#fff"/>
        <g id="Grupo_18" data-name="Grupo 18" transform="translate(25.36 233.441)" opacity="0.3">
          <circle id="XMLID_46_" cx="5.8" cy="5.8" r="5.8" transform="translate(1067.355 55.224)" fill="#fff"/>
          <path id="XMLID_45_" d="M455.6,346.374a2.774,2.774,0,1,1,2.774,2.774A2.8,2.8,0,0,1,455.6,346.374Z" transform="translate(611.755 -253.829)" fill="#fff"/>
          <path id="XMLID_44_" d="M466.2,310.017a2.017,2.017,0,1,1,2.017,2.017A1.989,1.989,0,0,1,466.2,310.017Z" transform="translate(627.885 -308)" fill="#fff"/>
          <path id="XMLID_43_" d="M184.371,445.414a3.566,3.566,0,1,1,5.043,0A3.367,3.367,0,0,1,184.371,445.414Z" transform="translate(197.597 -108.016)" fill="#fff"/>
          <path id="XMLID_42_" d="M154.656,437.935a2.318,2.318,0,1,1,3.278,0A2.355,2.355,0,0,1,154.656,437.935Z" transform="translate(152.67 -116.423)" fill="#fff"/>
          <path id="XMLID_41_" d="M82.99,386.751a5.493,5.493,0,1,1-4.539-6.3A5.45,5.45,0,0,1,82.99,386.751Z" transform="translate(28.151 -197.878)" fill="#fff"/>
          <path id="XMLID_40_" d="M58.031,346.3a5.423,5.423,0,1,1,7.565,1.261A5.547,5.547,0,0,1,58.031,346.3Z" transform="translate(5.199 -262.829)" fill="#fff"/>
          <path id="XMLID_39_" d="M76.665,375.208a3.606,3.606,0,1,1,5.043.756C79.943,377.226,77.674,376.974,76.665,375.208Z" transform="translate(34.223 -214.326)" fill="#fff"/>
          <path id="XMLID_38_" d="M40.065,439.009a3.9,3.9,0,0,1,.756-5.043,3.606,3.606,0,1,1,4.287,5.8A3.428,3.428,0,0,1,40.065,439.009Z" transform="translate(-21.469 -117.244)" fill="#fff"/>
          <path id="XMLID_37_" d="M32.765,353.444a2.345,2.345,0,1,1,3.278.5A2.035,2.035,0,0,1,32.765,353.444Z" transform="translate(-32.326 -244.508)" fill="#fff"/>
          <path id="XMLID_36_" d="M34.757,313.739a2.728,2.728,0,1,1,3.782.756A2.867,2.867,0,0,1,34.757,313.739Z" transform="translate(-29.274 -305.67)" fill="#fff"/>
          <path id="XMLID_35_" d="M383.35,463.423a3.175,3.175,0,1,1,2.774-3.53A3.138,3.138,0,0,1,383.35,463.423Z" transform="translate(496.394 -81.14)" fill="#fff"/>
          <path id="XMLID_34_" d="M481.95,445.924a3.175,3.175,0,1,1,2.774-3.53A3.28,3.28,0,0,1,481.95,445.924Z" transform="translate(646.43 -107.769)" fill="#fff"/>
          <path id="XMLID_33_" d="M425.317,438.623a2.283,2.283,0,1,1-2.017,2.522A2.456,2.456,0,0,1,425.317,438.623Z" transform="translate(562.606 -109.294)" fill="#fff"/>
          <path id="XMLID_32_" d="M456.589,478.029a2.033,2.033,0,1,1-1.765,2.269A1.886,1.886,0,0,1,456.589,478.029Z" transform="translate(610.514 -49.347)" fill="#fff"/>
          <path id="XMLID_31_" d="M438.893,465.223a2.675,2.675,0,1,1-2.27,3.026A2.606,2.606,0,0,1,438.893,465.223Z" transform="translate(582.82 -68.818)" fill="#fff"/>
          <path id="XMLID_30_" d="M475.465,471.129a2.033,2.033,0,1,1-1.765,2.27A2.422,2.422,0,0,1,475.465,471.129Z" transform="translate(639.297 -59.846)" fill="#fff"/>
          <path id="XMLID_28_" d="M278.156,460.242a5.849,5.849,0,1,1-5.043,6.556C272.861,463.521,274.878,460.494,278.156,460.242Z" transform="translate(334.039 -76.445)" fill="#fff"/>
          <path id="XMLID_27_" d="M232.974,475.919a3.175,3.175,0,1,1-2.774,3.53A3.328,3.328,0,0,1,232.974,475.919Z" transform="translate(268.772 -52.532)" fill="#fff"/>
          <circle id="XMLID_23_" cx="3.53" cy="3.53" r="3.53" transform="translate(189.312 386.319)" fill="#fff"/>
          <path id="XMLID_22_" d="M90.5,438.87a2.27,2.27,0,1,1,2.27,2.269C91.509,441.391,90.5,440.13,90.5,438.87Z" transform="translate(56.196 -112.314)" fill="#fff"/>
          <path id="XMLID_21_" d="M111.4,401.9a5.8,5.8,0,1,1,5.8,5.8A6.043,6.043,0,0,1,111.4,401.9Z" transform="translate(87.999 -173.942)" fill="#fff"/>
          <path id="XMLID_20_" d="M126.7,418.161a1.261,1.261,0,1,1,1.261,1.261A1.351,1.351,0,0,1,126.7,418.161Z" transform="translate(111.28 -142.291)" fill="#fff"/>
        </g>
        <path id="XMLID_18_" d="M111.4,412.474a2.774,2.774,0,1,1,2.774,2.774A2.8,2.8,0,0,1,111.4,412.474Z" transform="translate(113.359 80.195)" fill="#fff"/>
        <circle id="XMLID_17_" cx="3.026" cy="3.026" r="3.026" transform="translate(49.504 302.787)" fill="#fff"/>
        <path id="XMLID_120_" d="M32.4,225.326a3.026,3.026,0,1,1,3.026,3.026C33.913,228.6,32.4,227.091,32.4,225.326Z" transform="translate(-6.852 -204.965)" fill="#fff"/>
        <path id="XMLID_16_" d="M121.4,445.626a3.026,3.026,0,1,1,6.052,0,3.026,3.026,0,1,1-6.052,0Z" transform="translate(128.576 130.257)" fill="#fff"/>
        <path id="XMLID_15_" d="M74.3,355.574a2.774,2.774,0,1,1,2.774,2.774A2.8,2.8,0,0,1,74.3,355.574Z" transform="translate(56.906 -6.388)" fill="#fff"/>
      </g>
    </g>
  </g>
</svg>
